<svg xmlns="http://www.w3.org/2000/svg" width="50" height="50" viewBox="0 0 50 50">
  <g id="githubLogoCorner" transform="translate(-114 -22)">
    <path id="Path_85" data-name="Path 85" d="M0,0H49.72V50Z" transform="translate(114 22)"/>
    <path id="Path_86" data-name="Path 86" d="M8.406,0A8.408,8.408,0,0,0,5.749,16.384c.421.077.574-.182.574-.405,0-.2-.007-.728-.011-1.43-2.338.508-2.832-1.127-2.832-1.127a2.227,2.227,0,0,0-.934-1.23c-.763-.522.058-.511.058-.511a1.765,1.765,0,0,1,1.288.866,1.79,1.79,0,0,0,2.447.7,1.8,1.8,0,0,1,.534-1.124c-1.867-.212-3.829-.933-3.829-4.155a3.25,3.25,0,0,1,.865-2.256,3.02,3.02,0,0,1,.083-2.225S4.7,3.261,6.3,4.349a7.973,7.973,0,0,1,4.209,0c1.605-1.088,2.31-.862,2.31-.862a3.021,3.021,0,0,1,.084,2.225,3.244,3.244,0,0,1,.864,2.256c0,3.23-1.966,3.94-3.839,4.148a2.007,2.007,0,0,1,.571,1.557c0,1.124-.01,2.031-.01,2.306,0,.225.152.486.578.4A8.408,8.408,0,0,0,8.406,0Z" transform="translate(152.404 47.414) rotate(-135)" fill="#fff" fill-rule="evenodd"/>
  </g>
</svg>
